<?xml version="1.0" encoding="UTF-8" standalone="no"?>
<!DOCTYPE svg PUBLIC "-//W3C//DTD SVG 1.1//EN" "http://www.w3.org/Graphics/SVG/1.1/DTD/svg11.dtd">
<svg width="100%" height="100%" viewBox="0 0 59 105" version="1.1" xmlns="http://www.w3.org/2000/svg" xmlns:xlink="http://www.w3.org/1999/xlink" xml:space="preserve" xmlns:serif="http://www.serif.com/" style="fill-rule:evenodd;clip-rule:evenodd;">
    <path d="M56.587,29.294L56.587,75.706C56.587,90.77 44.357,103 29.294,103C14.23,103 2,90.77 2,75.706L2,29.294C2,14.23 14.23,2 29.294,2C44.357,2 56.587,14.23 56.587,29.294Z" style="fill:none;stroke:rgb(181,33,132);stroke-width:4px;"/>
    <g transform="matrix(1,0,0,1,12.5869,27.6276)">
        <path d="M16.838,2.004C16.564,2.039 16.362,2.277 16.373,2.553L16.373,46.035L2.898,34.056C2.796,33.957 2.658,33.903 2.516,33.906C2.293,33.913 2.098,34.058 2.027,34.27C1.957,34.481 2.026,34.714 2.2,34.853L16.556,47.614C16.756,47.788 17.054,47.788 17.254,47.614L31.61,34.853C31.73,34.765 31.807,34.631 31.823,34.483C31.839,34.335 31.793,34.187 31.695,34.075C31.597,33.963 31.456,33.897 31.308,33.893C31.159,33.89 31.015,33.949 30.912,34.056L17.437,46.035L17.437,2.553C17.443,2.397 17.38,2.246 17.265,2.14C17.15,2.034 16.994,1.985 16.839,2.004L16.838,2.004Z" style="fill:rgb(181,33,132);fill-rule:nonzero;stroke:rgb(181,33,132);stroke-width:2.61px;"/>
    </g>
</svg>
